<svg width="56" height="56" viewBox="0 0 56 56" fill="none" xmlns="http://www.w3.org/2000/svg">
<g id="cloud-auditing">
<path id="Vector" d="M49 28V38.5H7V10.5H28V7H7C6.07174 7 5.1815 7.36875 4.52513 8.02513C3.86875 8.6815 3.5 9.57174 3.5 10.5V38.5C3.5 39.4283 3.86875 40.3185 4.52513 40.9749C5.1815 41.6312 6.07174 42 7 42H21V49H14V52.5H42V49H35V42H49C49.9283 42 50.8185 41.6312 51.4749 40.9749C52.1312 40.3185 52.5 39.4283 52.5 38.5V28H49ZM31.5 49H24.5V42H31.5V49Z" fill="#3483AE"/>
<path id="Vector_2" d="M36.75 26.25L28 17.57L30.7825 14.8225L36.75 20.7375L49.7175 7.875L52.5 10.64L36.75 26.25Z" fill="#3483AE"/>
</g>
</svg>
