<svg width="48" height="48" viewBox="0 0 48 48" fill="none" xmlns="http://www.w3.org/2000/svg">
<g id="cloud-data-ops" clip-path="url(#clip0_69_680)">
<path id="Vector" d="M42 27H45V42H42V27Z" fill="#3483AE"/>
<path id="Vector_2" d="M36 21H39V42H36V21Z" fill="#3483AE"/>
<path id="Vector_3" d="M30 33H33V42H30V33Z" fill="#3483AE"/>
<path id="Vector_4" d="M33.2625 15L35.64 13.101C33.4294 10.3374 30.3088 8.44916 26.835 7.773C24.8993 7.39894 22.9088 7.41007 20.9774 7.80577C19.0459 8.20146 17.2114 8.97396 15.5787 10.0791C13.946 11.1842 12.5472 12.6003 11.4621 14.2464C10.377 15.8925 9.62706 17.7364 9.25504 19.6725C6.42649 20.1833 3.90044 21.7567 2.1947 24.0701C0.488957 26.3836 -0.267265 29.2619 0.0810426 32.115C0.479576 34.8877 1.87423 37.4204 4.00432 39.2397C6.1344 41.0589 8.8541 42.0402 11.655 42H24V39H11.541C9.57645 39.0306 7.66262 38.3754 6.12893 37.1473C4.59524 35.9191 3.53761 34.1948 3.13804 32.271C2.93799 31.2007 2.95156 30.1013 3.17797 29.0363C3.40438 27.9712 3.83916 26.9614 4.4573 26.065C5.07544 25.1686 5.86473 24.4033 6.77976 23.8131C7.69479 23.2229 8.7175 22.8195 9.78904 22.626L11.8125 22.2585L12.1335 20.5935C12.5842 18.0919 13.7983 15.7911 15.609 14.0072C17.4198 12.2233 19.7385 11.0437 22.2465 10.6305C23.7522 10.407 25.2867 10.4732 26.7675 10.8255C29.3423 11.4424 31.6319 12.914 33.2625 15Z" fill="#3483AE"/>
</g>
<defs>
<clipPath id="clip0_69_680">
<rect width="48" height="48" fill="white"/>
</clipPath>
</defs>
</svg>
