<svg width="56" height="56" viewBox="0 0 56 56" fill="none" xmlns="http://www.w3.org/2000/svg">
<g id="cloud-app">
<path id="Vector" d="M45.2008 22.953C44.4274 18.9573 42.2883 15.3551 39.15 12.7637C36.0117 10.1724 32.0698 8.75343 28 8.75V12.25C31.2558 12.2544 34.4089 13.3901 36.9197 15.4629C39.4305 17.5357 41.1429 20.4167 41.7638 23.6128L42.217 25.9683L44.5778 26.397C46.9417 26.8249 49.0602 28.121 50.5175 30.0309C51.9747 31.9408 52.6654 34.3264 52.4539 36.7194C52.2423 39.1124 51.1438 41.3399 49.3741 42.9645C47.6044 44.5891 45.2913 45.4935 42.889 45.5H28V49H42.889C46.1652 48.9929 49.3203 47.761 51.7347 45.5465C54.149 43.3319 55.6482 40.2947 55.9376 37.0313C56.227 33.7679 55.2858 30.5142 53.2988 27.9093C51.3119 25.3045 48.4228 23.5366 45.199 22.953H45.2008Z" fill="#3483AE"/>
<path id="Vector_2" d="M14 42H24.5V45.5H14V42Z" fill="#3483AE"/>
<path id="Vector_3" d="M7 42H10.5V45.5H7V42Z" fill="#3483AE"/>
<path id="Vector_4" d="M10.5 35H24.5V38.5H10.5V35Z" fill="#3483AE"/>
<path id="Vector_5" d="M3.5 35H7V38.5H3.5V35Z" fill="#3483AE"/>
<path id="Vector_6" d="M14 28H24.5V31.5H14V28Z" fill="#3483AE"/>
<path id="Vector_7" d="M7 28H10.5V31.5H7V28Z" fill="#3483AE"/>
<path id="Vector_8" d="M17.5 21H24.5V24.5H17.5V21Z" fill="#3483AE"/>
<path id="Vector_9" d="M10.5 21H14V24.5H10.5V21Z" fill="#3483AE"/>
<path id="Vector_10" d="M21 14H24.5V17.5H21V14Z" fill="#3483AE"/>
</g>
</svg>
