<svg width="56" height="56" viewBox="0 0 56 56" fill="none" xmlns="http://www.w3.org/2000/svg">
<g id="cloud-download">
<path id="Vector" d="M41.1252 38.5H40.2502V35H41.1252C43.2138 35.0835 45.25 34.334 46.786 32.9162C48.3219 31.4984 49.2317 29.5286 49.3152 27.44C49.3988 25.3514 48.6492 23.3152 47.2314 21.7793C45.8137 20.2433 43.8438 19.3335 41.7552 19.25H40.2502L40.0752 17.815C39.687 14.8688 38.241 12.1641 36.0066 10.2049C33.7723 8.24567 30.9019 7.16544 27.9302 7.16544C24.9585 7.16544 22.0882 8.24567 19.8538 10.2049C17.6195 12.1641 16.1735 14.8688 15.7852 17.815L15.7502 19.25H14.2452C12.1567 19.3335 10.1868 20.2433 8.76904 21.7793C7.35126 23.3152 6.6017 25.3514 6.68524 27.44C6.76878 29.5286 7.67859 31.4984 9.21451 32.9162C10.7504 34.334 12.7867 35.0835 14.8752 35H15.7502V38.5H14.8752C12.0689 38.4822 9.36828 37.4277 7.29246 35.5391C5.21665 33.6506 3.91222 31.0614 3.62997 28.2693C3.34772 25.4771 4.10757 22.6792 5.76343 20.4135C7.4193 18.1477 9.85428 16.574 12.6002 15.995C13.3557 12.4714 15.2967 9.31344 18.0993 7.04805C20.9019 4.78267 24.3966 3.54688 28.0002 3.54688C31.6039 3.54688 35.0986 4.78267 37.9012 7.04805C40.7038 9.31344 42.6447 12.4714 43.4002 15.995C46.1462 16.574 48.5812 18.1477 50.237 20.4135C51.8929 22.6792 52.6528 25.4771 52.3705 28.2693C52.0883 31.0614 50.7838 33.6506 48.708 35.5391C46.6322 37.4277 43.9315 38.4822 41.1252 38.5Z" fill="#3483AE"/>
<path id="Vector_2" d="M29.75 45.7975V24.5H26.25V45.7975L21.7175 41.2825L19.25 43.75L28 52.5L36.75 43.75L34.2825 41.2825L29.75 45.7975Z" fill="#3483AE"/>
</g>
</svg>
