<svg width="56" height="56" viewBox="0 0 56 56" fill="none" xmlns="http://www.w3.org/2000/svg">
<g id="cloud-satellite-services" clip-path="url(#clip0_69_671)">
<path id="Vector" d="M50.7505 45.5C49.5685 45.5047 48.4235 45.9121 47.5042 46.655L43.7505 44.4902V41.6797C44.9181 41.2669 45.9022 40.4546 46.5288 39.3864C47.1554 38.3182 47.3843 37.0628 47.1748 35.8422C46.9654 34.6216 46.3312 33.5143 45.3844 32.716C44.4375 31.9178 43.2389 31.48 42.0005 31.48C40.762 31.48 39.5634 31.9178 38.6165 32.716C37.6697 33.5143 37.0355 34.6216 36.8261 35.8422C36.6166 37.0628 36.8455 38.3182 37.4721 39.3864C38.0987 40.4546 39.0828 41.2669 40.2505 41.6797V44.4902L36.4967 46.6585C35.5779 45.9143 34.4328 45.5057 33.2505 45.5C32.1535 45.4926 31.0814 45.8266 30.1829 46.4559C29.2844 47.0852 28.604 47.9785 28.236 49.0119C27.868 50.0453 27.8306 51.1676 28.1292 52.2231C28.4277 53.2787 29.0473 54.2152 29.902 54.9028C30.7568 55.5904 31.8043 55.995 32.8993 56.0604C33.9943 56.1259 35.0825 55.849 36.0131 55.2682C36.9437 54.6873 37.6704 53.8313 38.0926 52.8188C38.5148 51.8064 38.6115 50.6876 38.3692 49.6177L42.0005 47.5195L45.6317 49.616C45.3976 50.6769 45.4986 51.7843 45.9208 52.7853C46.343 53.7864 47.0656 54.6316 47.9887 55.2045C48.9118 55.7773 49.99 56.0494 51.0744 55.9832C52.1589 55.9171 53.196 55.5159 54.0426 54.8351C54.8893 54.1543 55.5037 53.2275 55.8011 52.1825C56.0985 51.1376 56.0641 50.0261 55.7028 49.0015C55.3414 47.977 54.671 47.0898 53.7839 46.4626C52.8968 45.8354 51.8369 45.499 50.7505 45.5ZM33.2505 52.5C32.9043 52.5 32.566 52.3973 32.2782 52.205C31.9904 52.0128 31.7661 51.7394 31.6337 51.4197C31.5012 51.0999 31.4666 50.748 31.5341 50.4086C31.6016 50.0691 31.7683 49.7573 32.013 49.5125C32.2578 49.2678 32.5696 49.1011 32.909 49.0336C33.2485 48.9661 33.6004 49.0007 33.9201 49.1332C34.2399 49.2656 34.5132 49.4899 34.7055 49.7777C34.8978 50.0655 35.0005 50.4039 35.0005 50.75C35.0005 51.2141 34.8161 51.6592 34.4879 51.9874C34.1597 52.3156 33.7146 52.5 33.2505 52.5ZM42.0005 35C42.3466 35 42.6849 35.1026 42.9727 35.2949C43.2605 35.4872 43.4848 35.7605 43.6172 36.0803C43.7497 36.4001 43.7844 36.7519 43.7168 37.0914C43.6493 37.4309 43.4826 37.7427 43.2379 37.9874C42.9931 38.2322 42.6813 38.3988 42.3419 38.4664C42.0024 38.5339 41.6505 38.4992 41.3308 38.3668C41.011 38.2343 40.7377 38.01 40.5454 37.7222C40.3531 37.4344 40.2505 37.0961 40.2505 36.75C40.2505 36.2858 40.4348 35.8407 40.763 35.5125C41.0912 35.1844 41.5363 35 42.0005 35ZM50.7505 52.5C50.4043 52.5 50.066 52.3973 49.7782 52.205C49.4904 52.0128 49.2661 51.7394 49.1337 51.4197C49.0012 51.0999 48.9666 50.748 49.0341 50.4086C49.1016 50.0691 49.2683 49.7573 49.513 49.5125C49.7578 49.2678 50.0696 49.1011 50.409 49.0336C50.7485 48.9661 51.1004 49.0007 51.4201 49.1332C51.7399 49.2656 52.0132 49.4899 52.2055 49.7777C52.3978 50.0655 52.5005 50.4039 52.5005 50.75C52.5005 51.2141 52.3161 51.6592 51.9879 51.9874C51.6597 52.3156 51.2146 52.5 50.7505 52.5Z" fill="#3483AE"/>
<path id="Vector_2" d="M12.25 38.5C14.183 38.5 15.75 36.933 15.75 35C15.75 33.067 14.183 31.5 12.25 31.5C10.317 31.5 8.75 33.067 8.75 35C8.75 36.933 10.317 38.5 12.25 38.5Z" fill="#3483AE"/>
<path id="Vector_3" d="M24.5 35C23.1155 35 21.7622 34.5895 20.611 33.8203C19.4599 33.0511 18.5627 31.9579 18.0328 30.6788C17.503 29.3997 17.3644 27.9922 17.6345 26.6344C17.9046 25.2765 18.5713 24.0292 19.5503 23.0503C20.5292 22.0713 21.7765 21.4046 23.1344 21.1345C24.4922 20.8644 25.8997 21.003 27.1788 21.5328C28.4579 22.0627 29.5511 22.9599 30.3203 24.111C31.0895 25.2622 31.5 26.6155 31.5 28C31.4945 29.8548 30.7552 31.6321 29.4436 32.9436C28.1321 34.2552 26.3548 34.9945 24.5 35ZM24.5 24.5C23.8078 24.5 23.1311 24.7053 22.5555 25.0899C21.9799 25.4744 21.5313 26.0211 21.2664 26.6606C21.0015 27.3002 20.9322 28.0039 21.0673 28.6828C21.2023 29.3618 21.5356 29.9854 22.0251 30.4749C22.5146 30.9644 23.1383 31.2977 23.8172 31.4328C24.4961 31.5678 25.1999 31.4985 25.8394 31.2336C26.4789 30.9687 27.0256 30.5201 27.4101 29.9445C27.7947 29.3689 28 28.6922 28 28C27.9972 27.0726 27.6276 26.184 26.9718 25.5282C26.316 24.8724 25.4274 24.5028 24.5 24.5Z" fill="#3483AE"/>
<path id="Vector_4" d="M36.75 24.5C38.683 24.5 40.25 22.933 40.25 21C40.25 19.067 38.683 17.5 36.75 17.5C34.817 17.5 33.25 19.067 33.25 21C33.25 22.933 34.817 24.5 36.75 24.5Z" fill="#3483AE"/>
<path id="Vector_5" d="M22.785 49.4743L5.25 39.2473V16.7545L24.5 5.52653L44.618 17.262L46.382 14.238L25.382 1.98803C25.1143 1.83182 24.8099 1.74951 24.5 1.74951C24.1901 1.74951 23.8857 1.83182 23.618 1.98803L2.618 14.238C2.35379 14.3922 2.13461 14.6129 1.98231 14.8782C1.83001 15.1435 1.74991 15.4441 1.75 15.75V40.25C1.74991 40.5559 1.83001 40.8565 1.98231 41.1218C2.13461 41.3871 2.35379 41.6078 2.618 41.762L21.0227 52.5L22.785 49.4743Z" fill="#3483AE"/>
</g>
<defs>
<clipPath id="clip0_69_671">
<rect width="56" height="56" fill="white"/>
</clipPath>
</defs>
</svg>
