<svg width="53" height="53" viewBox="0 0 53 53" fill="none" xmlns="http://www.w3.org/2000/svg">
<g id="analytics">
<path id="Vector" d="M47.2029 13.25C46.5288 13.2502 45.8648 13.415 45.2688 13.73C44.6728 14.0451 44.1628 14.5009 43.783 15.0579C43.4032 15.6149 43.1651 16.2563 43.0895 16.9262C43.0139 17.5961 43.103 18.2743 43.349 18.902L34.6361 27.6149C33.6648 27.2325 32.5847 27.2325 31.6135 27.6149L25.3849 21.3863C25.6316 20.7585 25.7211 20.08 25.6458 19.4097C25.5704 18.7394 25.3324 18.0977 24.9526 17.5404C24.5727 16.983 24.0624 16.5269 23.4661 16.2117C22.8698 15.8964 22.2055 15.7317 21.531 15.7317C20.8565 15.7317 20.1923 15.8964 19.596 16.2117C18.9996 16.5269 18.4894 16.983 18.1095 17.5404C17.7296 18.0977 17.4917 18.7394 17.4163 19.4097C17.341 20.08 17.4305 20.7585 17.6772 21.3863L7.308 31.7555C6.42245 31.4081 5.44429 31.3762 4.538 31.6652C3.63171 31.9542 2.85255 32.5464 2.33155 33.3423C1.81055 34.1382 1.57948 35.0892 1.67718 36.0354C1.77488 36.9816 2.19541 37.8654 2.86804 38.538C3.54068 39.2106 4.4244 39.6312 5.37062 39.7289C6.31684 39.8266 7.26785 39.5955 8.06373 39.0745C8.85962 38.5535 9.45185 37.7743 9.74083 36.8681C10.0298 35.9618 9.99794 34.9836 9.65056 34.098L20.0197 23.7289C20.991 24.1112 22.0711 24.1112 23.0424 23.7289L29.2709 29.9574C29.0243 30.5852 28.9347 31.2637 29.0101 31.934C29.0854 32.6043 29.3234 33.246 29.7033 33.8034C30.0831 34.3607 30.5934 34.8169 31.1897 35.1321C31.786 35.4473 32.4503 35.6121 33.1248 35.6121C33.7993 35.6121 34.4636 35.4473 35.0599 35.1321C35.6562 34.8169 36.1665 34.3607 36.5463 33.8034C36.9262 33.246 37.1642 32.6043 37.2395 31.934C37.3149 31.2637 37.2253 30.5852 36.9787 29.9574L45.6916 21.2445C46.2586 21.4673 46.8677 21.5622 47.4756 21.5224C48.0834 21.4827 48.675 21.3094 49.2082 21.0148C49.7414 20.7202 50.203 20.3115 50.5601 19.818C50.9172 19.3245 51.161 18.7583 51.2742 18.1598C51.3874 17.5612 51.367 16.9451 51.2147 16.3553C51.0624 15.7655 50.7818 15.2165 50.393 14.7476C50.0042 14.2787 49.5167 13.9013 48.9652 13.6425C48.4138 13.3836 47.8121 13.2496 47.2029 13.25Z" fill="#3283B0"/>
</g>
</svg>
