<svg width="53" height="53" viewBox="0 0 53 53" fill="none" xmlns="http://www.w3.org/2000/svg">
<g id="data-vis-3">
<path id="Vector" d="M46.3746 4.96885C45.3501 4.97093 44.3514 5.2906 43.5162 5.88384C42.6809 6.47708 42.0501 7.31471 41.7106 8.28135H36.2019C35.8416 6.8599 35.0177 5.59916 33.8604 4.6986C32.7031 3.79804 31.2785 3.30908 29.8121 3.30908C28.3457 3.30908 26.9212 3.79804 25.7639 4.6986C24.6066 5.59916 23.7826 6.8599 23.4223 8.28135H16.3269C16.0373 7.15113 15.4538 6.11768 14.6356 5.28593C13.8173 4.45418 12.7936 3.85375 11.6683 3.54561C10.543 3.23748 9.35616 3.23261 8.22836 3.5315C7.10055 3.83039 6.07192 4.42239 5.24691 5.2474C4.4219 6.07241 3.8299 7.10104 3.53101 8.22884C3.23212 9.35665 3.23699 10.5435 3.54512 11.6688C3.85326 12.7941 4.45369 13.8178 5.28544 14.636C6.11719 15.4542 7.15065 16.0378 8.28087 16.3274V23.4228C6.85941 23.7831 5.59867 24.6071 4.69811 25.7644C3.79755 26.9217 3.30859 28.3462 3.30859 29.8126C3.30859 31.279 3.79755 32.7035 4.69811 33.8608C5.59867 35.0181 6.85941 35.8421 8.28087 36.2024V41.7111C7.17579 42.1018 6.24442 42.8706 5.65135 43.8816C5.05829 44.8926 4.84172 46.0807 5.03992 47.2359C5.23813 48.3911 5.83835 49.4391 6.73449 50.1946C7.63064 50.9501 8.76501 51.3644 9.93712 51.3644C11.1092 51.3644 12.2436 50.9501 13.1397 50.1946C14.0359 49.4391 14.6361 48.3911 14.8343 47.2359C15.0325 46.0807 14.8159 44.8926 14.2229 43.8816C13.6298 42.8706 12.6984 42.1018 11.5934 41.7111V36.2024C12.6243 35.9352 13.5751 35.422 14.3643 34.7068L19.9359 37.4926C19.9031 37.6916 19.8827 37.8924 19.8746 38.0939C19.8701 39.2449 20.2637 40.362 20.9887 41.256C21.7138 42.15 22.7257 42.7657 23.8528 42.9988C24.98 43.2319 26.1531 43.0681 27.1733 42.5351C28.1935 42.0021 28.9979 41.1327 29.4503 40.0743C29.9027 39.0159 29.9752 37.8337 29.6555 36.7279C29.3358 35.6222 28.6436 34.661 27.6962 34.0074C26.7488 33.3537 25.6045 33.0478 24.4572 33.1415C23.31 33.2352 22.2305 33.7226 21.4017 34.5213L16.1878 31.9144C16.4268 31.239 16.5533 30.529 16.5621 29.8126C16.5578 28.3478 16.0676 26.9259 15.1684 25.7696C14.2693 24.6132 13.0119 23.7879 11.5934 23.4228V16.3274C12.732 16.0306 13.7709 15.4355 14.6029 14.6034C15.435 13.7714 16.0301 12.7325 16.3269 11.5939H23.4223C23.6268 12.4286 23.9942 13.2146 24.5035 13.9068C25.0128 14.599 25.6539 15.1837 26.3899 15.6273C27.1259 16.0709 27.9424 16.3646 28.7923 16.4916C29.6423 16.6186 30.5089 16.5763 31.3425 16.3672L34.342 21.6175C33.5616 22.5185 33.1257 23.6668 33.1114 24.8587C33.0972 26.0506 33.5055 27.209 34.2641 28.1285C35.0226 29.0479 36.0823 29.669 37.2551 29.8815C38.428 30.094 39.6382 29.8843 40.6712 29.2894C41.7041 28.6946 42.493 27.7531 42.8978 26.632C43.3027 25.5109 43.2974 24.2826 42.8828 23.1651C42.4683 22.0475 41.6713 21.1129 40.6333 20.527C39.5952 19.9412 38.3832 19.7419 37.2122 19.9645L34.2658 14.807C35.2084 13.9458 35.881 12.8297 36.2019 11.5939H41.7106C42.0157 12.4504 42.5504 13.2066 43.2563 13.7799C43.9621 14.3531 44.8119 14.7213 45.7129 14.8442C46.6138 14.9672 47.5312 14.8401 48.3648 14.4769C49.1984 14.1137 49.9162 13.5284 50.4396 12.7848C50.963 12.0413 51.272 11.1682 51.3328 10.261C51.3936 9.35371 51.2039 8.4472 50.7843 7.64049C50.3648 6.83378 49.7315 6.15791 48.9538 5.68674C48.1761 5.21557 47.2839 4.96723 46.3746 4.96885ZM13.2496 29.8126C13.2496 30.4678 13.0553 31.1082 12.6914 31.6529C12.3274 32.1977 11.81 32.6222 11.2048 32.873C10.5995 33.1237 9.93344 33.1893 9.29088 33.0615C8.64832 32.9336 8.05809 32.6182 7.59482 32.1549C7.13156 31.6916 6.81608 31.1014 6.68826 30.4588C6.56045 29.8163 6.62605 29.1502 6.87676 28.545C7.12748 27.9397 7.55205 27.4223 8.09679 27.0584C8.64153 26.6944 9.28197 26.5001 9.93712 26.5001C10.8154 26.501 11.6574 26.8503 12.2784 27.4713C12.8995 28.0923 13.2487 28.9343 13.2496 29.8126ZM9.93712 13.2501C9.28197 13.2501 8.64153 13.0558 8.09679 12.6918C7.55205 12.3279 7.12748 11.8105 6.87676 11.2052C6.62605 10.6 6.56045 9.93393 6.68826 9.29137C6.81608 8.64881 7.13156 8.05857 7.59482 7.59531C8.05809 7.13205 8.64832 6.81657 9.29088 6.68875C9.93344 6.56094 10.5995 6.62654 11.2048 6.87725C11.81 7.12797 12.3274 7.55254 12.6914 8.09728C13.0553 8.64202 13.2496 9.28245 13.2496 9.9376C13.2487 10.8159 12.8995 11.6579 12.2784 12.2789C11.6574 12.9 10.8154 13.2492 9.93712 13.2501ZM26.4996 9.9376C26.4996 9.28245 26.6939 8.64202 27.0579 8.09728C27.4219 7.55254 27.9392 7.12797 28.5445 6.87725C29.1498 6.62654 29.8158 6.56094 30.4584 6.68875C31.1009 6.81657 31.6911 7.13205 32.1544 7.59531C32.6177 8.05857 32.9332 8.64881 33.061 9.29137C33.1888 9.93393 33.1232 10.6 32.8725 11.2052C32.6218 11.8105 32.1972 12.3279 31.6524 12.6918C31.1077 13.0558 30.4673 13.2501 29.8121 13.2501C28.9339 13.2492 28.0918 12.9 27.4708 12.2789C26.8498 11.6579 26.5005 10.8159 26.4996 9.9376Z" fill="#3283B0"/>
</g>
</svg>
