<svg width="53" height="53" viewBox="0 0 53 53" fill="none" xmlns="http://www.w3.org/2000/svg">
<g id="data-refinery-reference">
<path id="Vector" d="M6.625 33.125V36.4375H14.2206L3.3125 47.3456L5.65444 49.6875L16.5625 38.7794V46.375H19.875V33.125H6.625Z" fill="#3283B0"/>
<path id="Vector_2" d="M46.375 19.875H36.4375C35.5592 19.8741 34.7172 19.5248 34.0962 18.9038C33.4752 18.2828 33.1259 17.4408 33.125 16.5625V6.625C33.1259 5.74674 33.4752 4.9047 34.0962 4.28368C34.7172 3.66265 35.5592 3.31338 36.4375 3.3125H46.375C47.2533 3.31338 48.0953 3.66265 48.7163 4.28368C49.3373 4.9047 49.6866 5.74674 49.6875 6.625V16.5625C49.6866 17.4408 49.3373 18.2828 48.7163 18.9038C48.0953 19.5248 47.2533 19.8741 46.375 19.875ZM36.4375 6.625V16.5625H46.375V6.625H36.4375Z" fill="#3283B0"/>
<path id="Vector_3" d="M39.75 43.0625H26.5V39.75H39.75V28.1562H13.25C12.3717 28.1554 11.5297 27.8061 10.9087 27.1851C10.2877 26.564 9.93838 25.722 9.9375 24.8438V13.25C9.93838 12.3717 10.2877 11.5297 10.9087 10.9087C11.5297 10.2877 12.3717 9.93838 13.25 9.9375H29.8125V13.25H13.25V24.8438H39.75C40.6283 24.8446 41.4703 25.1939 42.0913 25.8149C42.7123 26.436 43.0616 27.278 43.0625 28.1562V39.75C43.0616 40.6283 42.7123 41.4703 42.0913 42.0913C41.4703 42.7123 40.6283 43.0616 39.75 43.0625Z" fill="#3283B0"/>
</g>
</svg>
