<svg width="53" height="53" viewBox="0 0 53 53" fill="none" xmlns="http://www.w3.org/2000/svg">
<g id="data-vis-1">
<path id="Vector" d="M43.0625 36.4375C41.8831 36.4436 40.7272 36.7681 39.7169 37.3766L33.4016 31.0597C34.3014 29.7092 34.7815 28.1227 34.7815 26.5C34.7815 24.8773 34.3014 23.2908 33.4016 21.9403L37.6201 17.7219C38.6872 18.2359 39.9018 18.3556 41.0488 18.0598C42.1957 17.764 43.201 17.0718 43.8864 16.1059C44.5719 15.1399 44.8933 13.9625 44.7938 12.7822C44.6943 11.6019 44.1802 10.4949 43.3426 9.65736C42.5051 8.8198 41.3981 8.30573 40.2178 8.2062C39.0376 8.10667 37.8601 8.4281 36.8941 9.11357C35.9282 9.79903 35.236 10.8043 34.9402 11.9512C34.6444 13.0982 34.7641 14.3128 35.2781 15.3799L31.0597 19.5984C29.7092 18.6986 28.1227 18.2185 26.5 18.2185C24.8773 18.2185 23.2908 18.6986 21.9403 19.5984L15.6234 13.2815C16.2316 12.2716 16.5561 11.1164 16.5625 9.9375C16.5625 8.6272 16.174 7.34633 15.446 6.25685C14.718 5.16737 13.6833 4.31823 12.4728 3.8168C11.2622 3.31537 9.93015 3.18417 8.64503 3.4398C7.35991 3.69543 6.17944 4.3264 5.25292 5.25292C4.3264 6.17944 3.69543 7.35991 3.4398 8.64503C3.18417 9.93015 3.31537 11.2622 3.8168 12.4728C4.31823 13.6833 5.16737 14.718 6.25685 15.446C7.34633 16.174 8.6272 16.5625 9.9375 16.5625C11.1169 16.5564 12.2728 16.2319 13.2831 15.6234L19.5984 21.9403C18.6986 23.2908 18.2185 24.8773 18.2185 26.5C18.2185 28.1227 18.6986 29.7092 19.5984 31.0597L13.2815 37.3766C12.2716 36.7684 11.1163 36.444 9.9375 36.4375C8.6272 36.4375 7.34633 36.8261 6.25685 37.554C5.16737 38.282 4.31823 39.3167 3.8168 40.5272C3.31537 41.7378 3.18417 43.0699 3.4398 44.355C3.69543 45.6401 4.3264 46.8206 5.25292 47.7471C6.17944 48.6736 7.35991 49.3046 8.64503 49.5602C9.93015 49.8158 11.2622 49.6846 12.4728 49.1832C13.6833 48.6818 14.718 47.8326 15.446 46.7432C16.174 45.6537 16.5625 44.3728 16.5625 43.0625C16.5564 41.8831 16.2319 40.7272 15.6234 39.7169L21.9403 33.4016C22.8212 33.9887 23.807 34.4003 24.8438 34.614V40.0548C23.7387 40.4455 22.8073 41.2142 22.2142 42.2252C21.6212 43.2362 21.4046 44.4243 21.6028 45.5796C21.801 46.7348 22.4012 47.7828 23.2974 48.5382C24.1935 49.2937 25.3279 49.7081 26.5 49.7081C27.6721 49.7081 28.8065 49.2937 29.7026 48.5382C30.5988 47.7828 31.199 46.7348 31.3972 45.5796C31.5954 44.4243 31.3788 43.2362 30.7858 42.2252C30.1927 41.2142 29.2613 40.4455 28.1563 40.0548V34.614C29.193 34.4003 30.1788 33.9887 31.0597 33.4016L37.3766 39.7185C36.7684 40.7284 36.4439 41.8837 36.4375 43.0625C36.4375 44.3728 36.8261 45.6537 37.554 46.7432C38.282 47.8326 39.3167 48.6818 40.5272 49.1832C41.7378 49.6846 43.0699 49.8158 44.355 49.5602C45.6401 49.3046 46.8206 48.6736 47.7471 47.7471C48.6736 46.8206 49.3046 45.6401 49.5602 44.355C49.8158 43.0699 49.6846 41.7378 49.1832 40.5272C48.6818 39.3167 47.8326 38.282 46.7432 37.554C45.6537 36.8261 44.3728 36.4375 43.0625 36.4375ZM26.5 21.5313C27.4827 21.5313 28.4434 21.8227 29.2605 22.3686C30.0776 22.9146 30.7145 23.6906 31.0905 24.5985C31.4666 25.5065 31.565 26.5055 31.3733 27.4694C31.1816 28.4332 30.7083 29.3185 30.0134 30.0134C29.3185 30.7083 28.4332 31.1816 27.4694 31.3733C26.5055 31.565 25.5065 31.4666 24.5985 31.0905C23.6906 30.7145 22.9146 30.0776 22.3686 29.2605C21.8227 28.4434 21.5313 27.4827 21.5313 26.5C21.5326 25.1826 22.0565 23.9196 22.988 22.988C23.9196 22.0565 25.1826 21.5326 26.5 21.5313ZM6.625 9.9375C6.625 9.28235 6.81928 8.64191 7.18326 8.09718C7.54724 7.55244 8.06458 7.12787 8.66986 6.87715C9.27514 6.62644 9.94118 6.56084 10.5837 6.68865C11.2263 6.81646 11.8165 7.13195 12.2798 7.59521C12.7431 8.05847 13.0585 8.6487 13.1864 9.29127C13.3142 9.93383 13.2486 10.5999 12.9979 11.2051C12.7471 11.8104 12.3226 12.3278 11.7778 12.6917C11.2331 13.0557 10.5927 13.25 9.9375 13.25C9.05924 13.2491 8.2172 12.8998 7.59618 12.2788C6.97516 11.6578 6.62588 10.8158 6.625 9.9375ZM9.9375 46.375C9.28235 46.375 8.64191 46.1807 8.09718 45.8167C7.55244 45.4528 7.12787 44.9354 6.87715 44.3301C6.62644 43.7249 6.56084 43.0588 6.68865 42.4163C6.81646 41.7737 7.13195 41.1835 7.59521 40.7202C8.05847 40.257 8.6487 39.9415 9.29127 39.8137C9.93383 39.6858 10.5999 39.7514 11.2051 40.0022C11.8104 40.2529 12.3278 40.6774 12.6917 41.2222C13.0557 41.7669 13.25 42.4074 13.25 43.0625C13.2491 43.9408 12.8998 44.7828 12.2788 45.4038C11.6578 46.0249 10.8158 46.3741 9.9375 46.375ZM43.0625 46.375C42.4074 46.375 41.7669 46.1807 41.2222 45.8167C40.6774 45.4528 40.2529 44.9354 40.0022 44.3301C39.7514 43.7249 39.6858 43.0588 39.8137 42.4163C39.9415 41.7737 40.257 41.1835 40.7202 40.7202C41.1835 40.257 41.7737 39.9415 42.4163 39.8137C43.0588 39.6858 43.7249 39.7514 44.3301 40.0022C44.9354 40.2529 45.4528 40.6774 45.8167 41.2222C46.1807 41.7669 46.375 42.4074 46.375 43.0625C46.3737 43.9406 46.0243 44.7824 45.4033 45.4033C44.7824 46.0243 43.9406 46.3737 43.0625 46.375Z" fill="#3283B0"/>
</g>
</svg>
