<svg width="53" height="53" viewBox="0 0 53 53" fill="none" xmlns="http://www.w3.org/2000/svg">
<g id="data-backup">
<path id="Vector" d="M11.5938 13.25C12.5085 13.25 13.25 12.5085 13.25 11.5938C13.25 10.679 12.5085 9.9375 11.5938 9.9375C10.679 9.9375 9.9375 10.679 9.9375 11.5938C9.9375 12.5085 10.679 13.25 11.5938 13.25Z" fill="#3283B0"/>
<path id="Vector_2" d="M11.5938 26.5C12.5085 26.5 13.25 25.7585 13.25 24.8438C13.25 23.929 12.5085 23.1875 11.5938 23.1875C10.679 23.1875 9.9375 23.929 9.9375 24.8438C9.9375 25.7585 10.679 26.5 11.5938 26.5Z" fill="#3283B0"/>
<path id="Vector_3" d="M11.5938 39.75C12.5085 39.75 13.25 39.0085 13.25 38.0938C13.25 37.179 12.5085 36.4375 11.5938 36.4375C10.679 36.4375 9.9375 37.179 9.9375 38.0938C9.9375 39.0085 10.679 39.75 11.5938 39.75Z" fill="#3283B0"/>
<path id="Vector_4" d="M19.875 43.0625H6.625V33.125H19.875V29.8125H6.625V19.875H36.4375V6.625C36.4375 5.74647 36.0885 4.90392 35.4673 4.28271C34.8461 3.66149 34.0035 3.3125 33.125 3.3125H6.625C5.74647 3.3125 4.90392 3.66149 4.28271 4.28271C3.66149 4.90392 3.3125 5.74647 3.3125 6.625V43.0625C3.3125 43.941 3.66149 44.7836 4.28271 45.4048C4.90392 46.026 5.74647 46.375 6.625 46.375H19.875V43.0625ZM6.625 6.625H33.125V16.5625H6.625V6.625Z" fill="#3283B0"/>
<path id="Vector_5" d="M46.3751 28.1562V32.1527C45.3348 30.4134 43.8565 28.9773 42.0878 27.9879C40.3191 26.9985 38.3217 26.4902 36.2952 26.514C34.2687 26.5377 32.2838 27.0926 30.5387 28.1231C28.7936 29.1537 27.3494 30.624 26.3501 32.3872C25.3508 34.1504 24.8315 36.1449 24.844 38.1715C24.8564 40.1981 25.4002 42.1861 26.4211 43.9369C27.4419 45.6877 28.9041 47.1401 30.6618 48.1491C32.4194 49.1582 34.4109 49.6886 36.4376 49.6874V46.3749C34.9441 46.3769 33.4779 45.9749 32.1942 45.2116C30.9105 44.4483 29.8571 43.3521 29.1456 42.0389C28.4341 40.7258 28.091 39.2447 28.1525 37.7525C28.214 36.2603 28.6779 34.8125 29.4951 33.5624C30.3123 32.3123 31.4524 31.3065 32.7945 30.6515C34.1367 29.9964 35.6311 29.7165 37.1193 29.8415C38.6076 29.9664 40.0343 30.4914 41.2485 31.361C42.4628 32.2306 43.4192 33.4124 44.0166 34.7812H39.7501V38.0937H49.6876V28.1562H46.3751Z" fill="#3283B0"/>
</g>
</svg>
