<svg width="53" height="53" viewBox="0 0 53 53" fill="none" xmlns="http://www.w3.org/2000/svg">
<g id="data-class">
<path id="Vector" d="M43.0624 26.5C41.8832 26.5061 40.7275 26.83 39.7168 27.4375L34.9816 22.7022L38.7794 18.9045C39.4004 18.2833 39.7492 17.4409 39.7492 16.5625C39.7492 15.6842 39.4004 14.8418 38.7794 14.2206L28.8419 4.28309C28.2207 3.66209 27.3783 3.31323 26.4999 3.31323C25.6216 3.31323 24.7792 3.66209 24.158 4.28309L14.2205 14.2206C13.5995 14.8418 13.2506 15.6842 13.2506 16.5625C13.2506 17.4409 13.5995 18.2833 14.2205 18.9045L18.0183 22.7022L13.283 27.4375C11.88 26.605 10.2213 26.3134 8.61846 26.6173C7.01561 26.9213 5.57887 27.8 4.57804 29.0884C3.5772 30.3767 3.08114 31.9861 3.18299 33.6144C3.28485 35.2426 3.97762 36.7776 5.13121 37.9312C6.2848 39.0848 7.81984 39.7776 9.44808 39.8794C11.0763 39.9813 12.6857 39.4852 13.9741 38.4844C15.2625 37.4836 16.1411 36.0468 16.4451 34.444C16.7491 32.8411 16.4575 31.1824 15.625 29.7794L20.3602 25.0442L24.158 28.842C24.3631 29.0424 24.5936 29.215 24.8437 29.3554V36.4375H19.8749V49.6875H33.1249V36.4375H28.1562V29.3537C28.4061 29.2139 28.6367 29.0418 28.8419 28.842L32.6396 25.0442L37.3749 29.7794C36.6414 31.0376 36.3442 32.503 36.5295 33.9476C36.7149 35.3922 37.3724 36.735 38.3998 37.7673C39.4271 38.7996 40.7669 39.4635 42.2105 39.6558C43.6542 39.848 45.121 39.5578 46.3827 38.8303C47.6444 38.1028 48.6304 36.9788 49.1873 35.633C49.7442 34.2873 49.8408 32.7952 49.4621 31.3889C49.0834 29.9826 48.2506 28.7408 47.0933 27.8566C45.9359 26.9725 44.5188 26.4956 43.0624 26.5ZM13.2499 33.125C13.2499 33.7802 13.0556 34.4206 12.6917 34.9653C12.3277 35.5101 11.8103 35.9347 11.2051 36.1854C10.5998 36.4361 9.93375 36.5017 9.29118 36.3739C8.64862 36.2461 8.05839 35.9306 7.59513 35.4673C7.13187 35.0041 6.81638 34.4138 6.68857 33.7713C6.56075 33.1287 6.62635 32.4627 6.87707 31.8574C7.12778 31.2521 7.55236 30.7348 8.09709 30.3708C8.64183 30.0068 9.28227 29.8125 9.93742 29.8125C10.8157 29.8134 11.6577 30.1627 12.2787 30.7837C12.8998 31.4047 13.249 32.2468 13.2499 33.125ZM29.8124 39.75V46.375H23.1874V39.75H29.8124ZM26.4999 26.5L16.5624 16.5625L26.4999 6.62503L36.4374 16.5625L26.4999 26.5ZM43.0624 36.4375C42.4073 36.4375 41.7668 36.2432 41.2221 35.8793C40.6774 35.5153 40.2528 34.9979 40.0021 34.3927C39.7514 33.7874 39.6858 33.1213 39.8136 32.4788C39.9414 31.8362 40.2569 31.246 40.7201 30.7827C41.1834 30.3195 41.7736 30.004 42.4162 29.8762C43.0587 29.7484 43.7248 29.814 44.3301 30.0647C44.9353 30.3154 45.4527 30.74 45.8167 31.2847C46.1806 31.8294 46.3749 32.4699 46.3749 33.125C46.374 34.0033 46.0248 34.8453 45.4037 35.4663C44.7827 36.0874 43.9407 36.4366 43.0624 36.4375Z" fill="#3283B0"/>
</g>
</svg>
