<?xml version="1.0" encoding="utf-8"?>
<!-- Generator: Adobe Illustrator 25.4.1, SVG Export Plug-In . SVG Version: 6.00 Build 0)  -->
<svg version="1.1" id="Layer_1" xmlns="http://www.w3.org/2000/svg" xmlns:xlink="http://www.w3.org/1999/xlink" x="0px" y="0px"
	 viewBox="0 0 14.1 14.1" style="enable-background:new 0 0 14.1 14.1;" xml:space="preserve">
<style type="text/css">
	.st0{fill-rule:evenodd;clip-rule:evenodd;fill:#FFFFFF;}
</style>
<path class="st0" d="M6.9,0.8c-3.6,0-6.5,2.9-6.5,6.5c0,2.9,1.9,5.3,4.4,6.2c0.3,0.1,0.4-0.1,0.4-0.3c0-0.2,0-0.6,0-1.1
	c-1.8,0.4-2.2-0.9-2.2-0.9c-0.3-0.8-0.7-0.9-0.7-0.9C1.8,9.8,2.4,9.8,2.4,9.8c0.6,0.1,1,0.7,1,0.7c0.6,1,1.5,0.7,1.9,0.5
	c0.1-0.4,0.2-0.7,0.4-0.9C4.3,10,2.8,9.4,2.8,6.9c0-0.7,0.2-1.3,0.7-1.7C3.4,5,3.1,4.4,3.5,3.5c0,0,0.5-0.2,1.8,0.7
	C5.8,4,6.4,3.9,6.9,3.9C7.4,3.9,8,4,8.5,4.2c1.2-0.8,1.8-0.7,1.8-0.7c0.4,0.9,0.1,1.5,0.1,1.7c0.4,0.5,0.7,1,0.7,1.7
	c0,2.5-1.5,3-3,3.2c0.2,0.2,0.4,0.6,0.4,1.2c0,0.9,0,1.6,0,1.8c0,0.2,0.1,0.4,0.5,0.3c2.6-0.8,4.4-3.3,4.4-6.1
	C13.4,3.7,10.5,0.8,6.9,0.8z"/>
</svg>
