<?xml version="1.0" encoding="utf-8"?>
<!-- Generator: Adobe Illustrator 25.4.1, SVG Export Plug-In . SVG Version: 6.00 Build 0)  -->
<svg version="1.1" id="Layer_1" xmlns="http://www.w3.org/2000/svg" xmlns:xlink="http://www.w3.org/1999/xlink" x="0px" y="0px"
	 viewBox="0 0 14.1 14.1" style="enable-background:new 0 0 14.1 14.1;" xml:space="preserve">
<style type="text/css">
	.st0{fill:#FFFFFF;}
</style>
<g>
	<path class="st0" d="M7,1.6c1.8,0,2,0,2.7,0c0.4,0,0.9,0.1,1.3,0.2c0.3,0.1,0.6,0.3,0.8,0.5c0.2,0.2,0.4,0.5,0.5,0.8
		c0.1,0.4,0.2,0.8,0.2,1.3c0,0.7,0,0.9,0,2.7s0,2,0,2.7c0,0.4-0.1,0.9-0.2,1.3c-0.1,0.3-0.3,0.6-0.5,0.8c-0.2,0.2-0.5,0.4-0.8,0.5
		c-0.4,0.1-0.8,0.2-1.3,0.2c-0.7,0-0.9,0-2.7,0c-1.8,0-2,0-2.7,0c-0.4,0-0.9-0.1-1.3-0.2c-0.3-0.1-0.6-0.3-0.8-0.5
		c-0.2-0.2-0.4-0.5-0.5-0.8c-0.1-0.4-0.2-0.8-0.2-1.3c0-0.7,0-0.9,0-2.7s0-2,0-2.7c0-0.4,0.1-0.9,0.2-1.3C1.8,2.9,2,2.6,2.2,2.4
		C2.4,2.2,2.7,2,3,1.9c0.4-0.1,0.8-0.2,1.3-0.2C5,1.6,5.2,1.6,7,1.6z M7,0.4c-1.8,0-2.1,0-2.8,0c-0.6,0-1.1,0.1-1.6,0.3
		C2.1,0.9,1.7,1.2,1.3,1.5C1,1.9,0.7,2.3,0.6,2.7C0.4,3.2,0.3,3.8,0.2,4.4c0,0.7,0,1,0,2.8c0,1.8,0,2.1,0,2.8c0,0.6,0.1,1.1,0.3,1.6
		C0.7,12,1,12.5,1.3,12.8c0.3,0.3,0.7,0.6,1.2,0.8c0.5,0.2,1.1,0.3,1.6,0.3c0.7,0,1,0,2.8,0c1.8,0,2.1,0,2.8,0
		c0.6,0,1.1-0.1,1.6-0.3c0.4-0.2,0.9-0.4,1.2-0.8c0.3-0.3,0.6-0.7,0.8-1.2c0.2-0.5,0.3-1.1,0.3-1.6c0-0.7,0-1,0-2.8
		c0-1.8,0-2.1,0-2.8c0-0.6-0.1-1.1-0.3-1.6c-0.2-0.5-0.4-0.9-0.8-1.2c-0.3-0.3-0.7-0.6-1.2-0.8c-0.5-0.2-1.1-0.3-1.6-0.3
		C9.1,0.4,8.8,0.4,7,0.4z"/>
	<path class="st0" d="M7,3.7c-0.7,0-1.4,0.2-1.9,0.6C4.5,4.6,4,5.2,3.8,5.8c-0.3,0.6-0.3,1.3-0.2,2c0.1,0.7,0.5,1.3,1,1.8
		c0.5,0.5,1.1,0.8,1.8,1c0.7,0.1,1.4,0.1,2-0.2c0.6-0.3,1.2-0.7,1.6-1.3c0.4-0.6,0.6-1.2,0.6-1.9c0-0.9-0.4-1.8-1-2.5
		C8.8,4,7.9,3.7,7,3.7z M7,9.4C6.5,9.4,6.1,9.3,5.7,9C5.4,8.8,5.1,8.4,4.9,8C4.7,7.6,4.7,7.2,4.8,6.7c0.1-0.4,0.3-0.8,0.6-1.2
		C5.7,5.2,6.1,5,6.5,4.9c0.4-0.1,0.9,0,1.3,0.1c0.4,0.2,0.8,0.5,1,0.8c0.2,0.4,0.4,0.8,0.4,1.3c0,0.6-0.2,1.2-0.7,1.6
		C8.2,9.2,7.6,9.4,7,9.4z"/>
	<path class="st0" d="M10.6,4.4c0.4,0,0.8-0.4,0.8-0.8c0-0.4-0.4-0.8-0.8-0.8c-0.4,0-0.8,0.4-0.8,0.8C9.8,4,10.1,4.4,10.6,4.4z"/>
</g>
</svg>
