<?xml version="1.0" encoding="utf-8"?>
<!-- Generator: Adobe Illustrator 25.4.1, SVG Export Plug-In . SVG Version: 6.00 Build 0)  -->
<svg version="1.1" id="Layer_1" xmlns="http://www.w3.org/2000/svg" xmlns:xlink="http://www.w3.org/1999/xlink" x="0px" y="0px"
	 viewBox="0 0 79.1 79.1" style="enable-background:new 0 0 79.1 79.1;" xml:space="preserve">
<style type="text/css">
	.st0{fill:#3783AD;}
	.st1{fill:#FFFFFF;}
</style>
<g id="Iocn">
	<circle id="Ellipse_71" class="st0" cx="39.5" cy="39.5" r="26"/>
	<path id="Rectangle_295" class="st1" d="M39,24.5L39,24.5c1.4,0,2.5,1.1,2.5,2.5v16c0,1.4-1.1,2.5-2.5,2.5l0,0
		c-1.4,0-2.5-1.1-2.5-2.5V27C36.5,25.6,37.6,24.5,39,24.5z"/>
	<path id="Rectangle_296" class="st1" d="M52.5,43L52.5,43c0,1.4-1.1,2.5-2.5,2.5H39c-1.4,0-2.5-1.1-2.5-2.5l0,0
		c0-1.4,1.1-2.5,2.5-2.5h11C51.4,40.5,52.5,41.6,52.5,43z"/>
</g>
</svg>
