<?xml version="1.0" encoding="utf-8"?>
<!-- Generator: Adobe Illustrator 25.4.1, SVG Export Plug-In . SVG Version: 6.00 Build 0)  -->
<svg version="1.1" id="Layer_1" xmlns="http://www.w3.org/2000/svg" xmlns:xlink="http://www.w3.org/1999/xlink" x="0px" y="0px"
	 viewBox="0 0 79.1 79.1" style="enable-background:new 0 0 79.1 79.1;" xml:space="preserve">
<style type="text/css">
	.st0{fill:#3684AE;}
</style>
<g id="Icon_2">
	<path id="Vector" class="st0" d="M40.5,56.2l12.1,6.3c0.5,0.3,0.9,0.8,0.9,1.4v3.2c0,1.1-1.1,1.9-2.1,1.5l-10.7-3.8
		c-0.6-0.2-1.1-0.8-1.1-1.5v-6.5C39.5,56.3,40.1,56,40.5,56.2z"/>
	<path id="Vector_2" class="st0" d="M38.6,56.2l-12.1,6.3c-0.5,0.3-0.9,0.8-0.9,1.4v3.2c0,1.1,1.1,1.9,2.1,1.5l10.7-3.8
		c0.6-0.2,1.1-0.8,1.1-1.5v-6.5C39.6,56.3,39.1,56,38.6,56.2z"/>
	<path id="Vector_3" class="st0" d="M57.6,38.9h-2.3c-1,0-1.8-0.8-1.8-1.8v-5.8c0-1,0.8-1.8,1.8-1.8h2.3c1,0,1.8,0.8,1.8,1.8V37
		C59.4,38,58.6,38.9,57.6,38.9z"/>
	<path id="Vector_4" class="st0" d="M45.7,29.4l20,9.6c2.5,1.2,1.4,4.3-1.5,4.3H45.7V29.4z"/>
	<path id="Vector_5" class="st0" d="M24.1,38.9h-2.3c-1,0-1.8-0.8-1.8-1.8v-5.8c0-1,0.8-1.8,1.8-1.8h2.3c1,0,1.8,0.8,1.8,1.8V37
		C25.9,38,25.1,38.9,24.1,38.9z"/>
	<path id="Vector_6" class="st0" d="M33.3,29.4l-20,9.6c-2.5,1.2-1.4,4.3,1.5,4.3h18.5V29.4z"/>
	<path id="Vector_7" class="st0" d="M39.5,9.7c0,0-7.3-0.4-7.3,18.2c0,16.8,3.6,35.3,6.4,41c0.4,0.7,1.4,0.7,1.8,0
		c2.9-5.7,6.4-24.2,6.4-41C46.8,9.2,39.5,9.7,39.5,9.7z"/>
	<path id="Ellipse_70" class="st0" d="M43.4,17.8c0-1-0.4-2-1.1-2.7c-0.7-0.7-1.7-1.1-2.7-1.1c-1,0-2,0.4-2.7,1.1
		c-0.7,0.7-1.1,1.7-1.1,2.7h3.8H43.4z"/>
</g>
</svg>
