<?xml version="1.0" encoding="utf-8"?>
<!-- Generator: Adobe Illustrator 25.4.1, SVG Export Plug-In . SVG Version: 6.00 Build 0)  -->
<svg version="1.1" id="Layer_1" xmlns="http://www.w3.org/2000/svg" xmlns:xlink="http://www.w3.org/1999/xlink" x="0px" y="0px"
	 viewBox="0 0 79.1 79.1" style="enable-background:new 0 0 79.1 79.1;" xml:space="preserve">
<style type="text/css">
	.st0{fill:#3684AE;}
	.st1{fill:#3383B1;}
	.st2{fill:#FFFFFF;}
</style>
<g id="Icon_2">
	<path id="Vector_11" class="st0" d="M58.3,50.7l-6.7-6c-2.1-1.9-5.3-0.2-5,2.6l1.7,13.7c0.1,0.9,0.6,1.7,1.4,2.2l5,3.2
		c2,1.3,4.6-0.1,4.6-2.5V53C59.3,52.1,58.9,51.3,58.3,50.7z"/>
	<path id="Vector_12" class="st0" d="M20.8,50.7l6.7-6c2.1-1.9,5.3-0.2,5,2.6l-1.7,13.7c-0.1,0.9-0.6,1.7-1.4,2.2l-5,3.2
		c-2,1.3-4.6-0.1-4.6-2.5V53C19.8,52.1,20.1,51.3,20.8,50.7z"/>
	<path id="Rectangle_293" class="st1" d="M45.4,57.6H34c-3.2,0-5.9-2.5-5.9-5.7C28,26.1,35.7,14.7,39.8,12.1
		c9.3,6.5,11.5,26.7,11.4,39.8C51.2,55.1,48.6,57.6,45.4,57.6z"/>
	<path id="Rectangle_294" class="st2" d="M36.6,29.6L36.6,29.6c0-1.9,1.6-3.5,3.5-3.5l0,0c1.9,0,3.5,1.6,3.5,3.5l0,0
		c0,1.9-1.6,3.5-3.5,3.5l0,0C38.1,33.1,36.6,31.5,36.6,29.6z"/>
</g>
</svg>
