<?xml version="1.0" encoding="utf-8"?>
<!-- Generator: Adobe Illustrator 25.4.1, SVG Export Plug-In . SVG Version: 6.00 Build 0)  -->
<svg version="1.1" id="Layer_1" xmlns="http://www.w3.org/2000/svg" xmlns:xlink="http://www.w3.org/1999/xlink" x="0px" y="0px"
	 viewBox="0 0 79.1 79.1" style="enable-background:new 0 0 79.1 79.1;" xml:space="preserve">
<style type="text/css">
	.st0{fill:#3383B1;}
</style>
<g id="Icon_2">
	<path class="st0" d="M56,66c2.9,0,5.1-2.8,4.4-5.7C57.9,49.8,48.6,42,37.5,42s-20.4,7.8-22.9,18.3C14,63.2,16.1,66,19.1,66L56,66
		L56,66z"/>
	<path class="st0" d="M52.5,71c6.1,0,11-4.9,11-11s-4.9-11-11-11s-11,4.9-11,11S46.5,71,52.5,71z"/>
	<path class="st0" d="M37.5,39c7.2,0,13-5.8,13-13s-5.8-13-13-13c-7.2,0-13,5.8-13,13S30.4,39,37.5,39z"/>
	<path class="st0" d="M47.5,59.5c0-0.8,0.7-1.5,1.5-1.5h8c0.8,0,1.5,0.7,1.5,1.5S57.9,61,57,61h-8C48.2,61,47.5,60.3,47.5,59.5z"/>
	<path class="st0" d="M53,65c-0.8,0-1.5-0.7-1.5-1.5v-8c0-0.8,0.7-1.5,1.5-1.5s1.5,0.7,1.5,1.5v8C54.5,64.3,53.9,65,53,65z"/>
</g>
</svg>
