<?xml version="1.0" encoding="utf-8"?>
<!-- Generator: Adobe Illustrator 25.4.1, SVG Export Plug-In . SVG Version: 6.00 Build 0)  -->
<svg version="1.1" id="Layer_1" xmlns="http://www.w3.org/2000/svg" xmlns:xlink="http://www.w3.org/1999/xlink" x="0px" y="0px"
	 viewBox="0 0 79.1 79.1" style="enable-background:new 0 0 79.1 79.1;" xml:space="preserve">
<style type="text/css">
	.st0{fill:none;stroke:#3684AE;stroke-width:3;}
	.st1{fill:#3684AE;}
	.st2{fill:#FFFFFF;}
</style>
<g id="Icon_2">
	<path id="Rectangle_292" class="st0" d="M17,31.6c0-3.5,2.4-6.5,5.9-7.3l30-6.7c4.7-1.1,9.1,2.5,9.1,7.3v18.8
		c0,3.5-2.4,6.5-5.9,7.3l-30,6.7c-4.7,1.1-9.1-2.5-9.1-7.3V31.6z"/>
	<path id="Rectangle_291" class="st1" d="M24.5,24.7h30c5,0,9,4,9,9v18.9c0,5-4,9-9,9h-30c-5,0-9-4-9-9V33.7
		C15.5,28.8,19.6,24.7,24.5,24.7z"/>
	<circle id="Ellipse_69" class="st2" cx="54.8" cy="43.3" r="3.8"/>
</g>
</svg>
