<?xml version="1.0" encoding="utf-8"?>
<!-- Generator: Adobe Illustrator 25.4.1, SVG Export Plug-In . SVG Version: 6.00 Build 0)  -->
<svg version="1.1" id="Layer_1" xmlns="http://www.w3.org/2000/svg" xmlns:xlink="http://www.w3.org/1999/xlink" x="0px" y="0px"
	 viewBox="0 0 79.1 79.1" style="enable-background:new 0 0 79.1 79.1;" xml:space="preserve">
<style type="text/css">
	.st0{fill:#3383B1;}
	.st1{fill:#FFFFFF;}
</style>
<g id="Iocn">
	<path id="Vector" class="st0" d="M59.8,51.6L51,59.9c-1.1,1.1-2.6,1.6-4.2,1.6H23.5c-3.3,0-6-2.5-6-5.6V23.2c0-3.1,2.7-5.6,6-5.6
		h32c3.3,0,6,2.5,6,5.6v24.5C61.5,49.2,60.9,50.6,59.8,51.6z"/>
	<path id="Rectangle_295" class="st1" d="M39.1,31.1L39.1,31.1c1.2,0,2.1,0.9,2.1,2.1v12.6c0,1.2-0.9,2.1-2.1,2.1h0
		c-1.2,0-2.1-0.9-2.1-2.1V33.2C37,32.1,37.9,31.1,39.1,31.1z"/>
	<path id="Rectangle_296" class="st1" d="M30.2,39.5L30.2,39.5c0-1.1,0.9-2,2-2H46c1.1,0,2,0.9,2,2l0,0c0,1.1-0.9,2-2,2H32.2
		C31.1,41.5,30.2,40.6,30.2,39.5z"/>
</g>
</svg>
