<?xml version="1.0" encoding="utf-8"?>
<!-- Generator: Adobe Illustrator 25.4.1, SVG Export Plug-In . SVG Version: 6.00 Build 0)  -->
<svg version="1.1" id="Layer_1" xmlns="http://www.w3.org/2000/svg" xmlns:xlink="http://www.w3.org/1999/xlink" x="0px" y="0px"
	 viewBox="0 0 14.1 14.1" style="enable-background:new 0 0 14.1 14.1;" xml:space="preserve">
<style type="text/css">
	.st0{fill:#FFFFFF;}
</style>
<path class="st0" d="M12.9,3.5c-0.4,0.2-0.9,0.3-1.3,0.4c0.5-0.3,0.8-0.7,1-1.3c-0.4,0.3-0.9,0.4-1.5,0.6c-0.4-0.4-1-0.7-1.7-0.7
	c-1.3,0-2.3,1-2.3,2.3c0,0.2,0,0.3,0.1,0.5c-1.9-0.1-3.6-1-4.7-2.4C2.3,3.1,2.2,3.5,2.2,3.9c0,0.8,0.4,1.5,1,1.9
	c-0.4,0-0.7-0.1-1-0.3v0c0,1.1,0.8,2,1.8,2.3c-0.2,0-0.4,0.1-0.6,0.1c-0.1,0-0.3,0-0.4,0c0.3,0.9,1.1,1.6,2.1,1.6
	c-0.8,0.6-1.8,1-2.8,1c-0.2,0-0.4,0-0.5,0c1,0.7,2.2,1,3.5,1c4.2,0,6.5-3.5,6.5-6.5c0-0.1,0-0.2,0-0.3C12.2,4.3,12.6,3.9,12.9,3.5z"
	/>
</svg>
